<svg width="202" height="32" viewBox="0 0 202 32" fill="none" xmlns="http://www.w3.org/2000/svg">
<path d="M60.51 2.5H65.06V27H60.51V2.5ZM47.84 27H43.29V2.5H47.84V27ZM60.86 16.5H47.455V12.615H60.86V16.5ZM68.16 27L79.185 2.5H83.665L94.725 27H89.965L80.48 4.915H82.3L72.85 27H68.16ZM73.235 21.33L74.46 17.76H87.69L88.915 21.33H73.235ZM102.391 27V17.305L103.406 20.105L92.7661 2.5H97.6311L106.171 16.675H103.441L112.051 2.5H116.531L105.891 20.105L106.941 17.305V27H102.391ZM114.576 27L125.601 2.5H130.081L141.141 27H136.381L126.896 4.915H128.716L119.266 27H114.576ZM119.651 21.33L120.876 17.76H134.106L135.331 21.33H119.651ZM157.772 27V6.35H149.652V2.5H170.442V6.35H162.322V27H157.772ZM173.856 27V2.5H177.601L192.966 21.365H191.111V2.5H195.626V27H191.881L176.516 8.135H178.371V27H173.856Z" fill="white"/>
<path d="M145.237 27.245C144.443 27.245 143.767 26.9767 143.207 26.44C142.647 25.88 142.367 25.18 142.367 24.34C142.367 23.4533 142.647 22.7533 143.207 22.24C143.767 21.7033 144.443 21.435 145.237 21.435C146.03 21.435 146.707 21.7033 147.267 22.24C147.827 22.7533 148.107 23.4533 148.107 24.34C148.107 25.18 147.827 25.88 147.267 26.44C146.707 26.9767 146.03 27.245 145.237 27.245Z" fill="#D5E87E"/>
<path d="M16 7H36" stroke="white" stroke-width="3"/>
<path d="M16 23H36" stroke="white" stroke-width="3"/>
<path d="M4 15H39" stroke="#D5E87E" stroke-width="3"/>
</svg>
