<svg width="60" height="11" viewBox="0 0 60 11" fill="none" xmlns="http://www.w3.org/2000/svg">
<path d="M5 3H15" stroke="#110D15"/>
<path d="M5 9H15" stroke="#110D15"/>
<path d="M0 6H16" stroke="#D5E87E"/>
<path d="M17.14 5.91H20.62V6.98H17.14V5.91ZM17.24 8.91H21.19V10H15.94V3H21.05V4.09H17.24V8.91Z" fill="#D5E87E"/>
<path d="M22.0792 10V9.21L25.3692 5.23L25.5992 5.66H22.1392V4.66H26.5992V5.45L23.3092 9.43L23.0592 9H26.6892V10H22.0792ZM27.8415 10V4.66H29.0315V6.13L28.8915 5.7C29.0515 5.34 29.3015 5.06667 29.6415 4.88C29.9882 4.69333 30.4182 4.6 30.9315 4.6V5.79C30.8782 5.77667 30.8282 5.77 30.7815 5.77C30.7348 5.76333 30.6882 5.76 30.6415 5.76C30.1682 5.76 29.7915 5.9 29.5115 6.18C29.2315 6.45333 29.0915 6.86333 29.0915 7.41V10H27.8415ZM34.453 10.07C33.8597 10.07 33.3397 9.95333 32.893 9.72C32.453 9.48 32.1097 9.15333 31.863 8.74C31.623 8.32667 31.503 7.85667 31.503 7.33C31.503 6.79667 31.6197 6.32667 31.853 5.92C32.093 5.50667 32.4197 5.18333 32.833 4.95C33.253 4.71667 33.7297 4.6 34.263 4.6C34.783 4.6 35.2464 4.71333 35.653 4.94C36.0597 5.16667 36.3797 5.48667 36.613 5.9C36.8464 6.31333 36.963 6.8 36.963 7.36C36.963 7.41333 36.9597 7.47333 36.953 7.54C36.953 7.60667 36.9497 7.67 36.943 7.73H32.493V6.9H36.283L35.793 7.16C35.7997 6.85333 35.7364 6.58333 35.603 6.35C35.4697 6.11667 35.2864 5.93333 35.053 5.8C34.8264 5.66667 34.563 5.6 34.263 5.6C33.9564 5.6 33.6864 5.66667 33.453 5.8C33.2264 5.93333 33.0464 6.12 32.913 6.36C32.7864 6.59333 32.723 6.87 32.723 7.19V7.39C32.723 7.71 32.7964 7.99333 32.943 8.24C33.0897 8.48667 33.2964 8.67667 33.563 8.81C33.8297 8.94333 34.1364 9.01 34.483 9.01C34.783 9.01 35.053 8.96333 35.293 8.87C35.533 8.77667 35.7464 8.63 35.933 8.43L36.603 9.2C36.363 9.48 36.0597 9.69667 35.693 9.85C35.333 9.99667 34.9197 10.07 34.453 10.07ZM41.1238 10.07C40.6704 10.07 40.2671 9.97 39.9137 9.77C39.5604 9.57 39.2804 9.27 39.0738 8.87C38.8738 8.46333 38.7738 7.95 38.7738 7.33C38.7738 6.70333 38.8771 6.19 39.0838 5.79C39.2971 5.39 39.5804 5.09333 39.9338 4.9C40.2938 4.7 40.6904 4.6 41.1238 4.6C41.6504 4.6 42.1138 4.71333 42.5138 4.94C42.9204 5.16667 43.2404 5.48333 43.4738 5.89C43.7138 6.29667 43.8338 6.77667 43.8338 7.33C43.8338 7.88333 43.7138 8.36333 43.4738 8.77C43.2404 9.17667 42.9204 9.49667 42.5138 9.73C42.1138 9.95667 41.6504 10.07 41.1238 10.07ZM38.1638 10V2.58H39.4138V5.9L39.3138 7.32L39.3538 8.74V10H38.1638ZM40.9838 9C41.2838 9 41.5504 8.93333 41.7838 8.8C42.0238 8.66667 42.2138 8.47333 42.3538 8.22C42.4938 7.96667 42.5638 7.67 42.5638 7.33C42.5638 6.98333 42.4938 6.68667 42.3538 6.44C42.2138 6.18667 42.0238 5.99333 41.7838 5.86C41.5504 5.72667 41.2838 5.66 40.9838 5.66C40.6838 5.66 40.4138 5.72667 40.1738 5.86C39.9338 5.99333 39.7438 6.18667 39.6038 6.44C39.4638 6.68667 39.3938 6.98333 39.3938 7.33C39.3938 7.67 39.4638 7.96667 39.6038 8.22C39.7438 8.47333 39.9338 8.66667 40.1738 8.8C40.4138 8.93333 40.6838 9 40.9838 9Z" fill="#110D15"/>
</svg>
